<?xml version="1.0" standalone="no"?>
<!DOCTYPE svg PUBLIC "-//W3C//DTD SVG 20010904//EN"
 "http://www.w3.org/TR/2001/REC-SVG-20010904/DTD/svg10.dtd">
<svg version="1.0" xmlns="http://www.w3.org/2000/svg"
 width="1000.000000pt" height="500.000000pt" viewBox="0 0 1000.000000 500.000000"
 preserveAspectRatio="xMidYMid meet">

<g transform="translate(0.000000,500.000000) scale(0.100000,-0.100000)"
fill="#000000" stroke="none">
<path d="M263 4795 c-18 -8 -33 -18 -33 -24 0 -16 21 -24 33 -12 12 12 56 15
82 5 8 -4 22 -19 31 -35 l15 -29 -102 0 -101 0 7 -27 c11 -45 34 -74 73 -90
53 -22 109 -2 137 49 l21 38 17 -36 c30 -62 119 -80 171 -35 18 16 46 70 46
91 0 6 -38 10 -100 10 l-101 0 16 30 c18 35 56 48 99 32 31 -12 54 -3 42 17
-4 6 -24 16 -45 22 -50 15 -104 -9 -129 -58 l-18 -34 -16 34 c-10 20 -30 41
-51 50 -42 20 -52 20 -94 2z m117 -135 c0 -19 -45 -50 -74 -50 -28 0 -76 33
-76 52 0 4 34 8 75 8 41 0 75 -4 75 -10z m233 3 c14 -14 -36 -53 -68 -53 -30
0 -75 30 -75 50 0 11 133 14 143 3z"/>
<path d="M9860 3465 l0 -635 70 0 70 0 0 635 0 635 -70 0 -70 0 0 -635z"/>
<path d="M430 2860 l0 -340 2320 0 2320 0 0 340 0 340 -2320 0 -2320 0 0 -340z
m1050 35 l0 -215 -35 0 -35 0 0 215 0 215 35 0 35 0 0 -215z m-575 186 c22
-10 46 -25 54 -35 12 -14 11 -20 -8 -40 l-23 -24 -35 24 c-70 47 -167 21 -205
-56 -66 -131 85 -267 205 -186 l35 24 23 -24 c21 -23 22 -25 4 -44 -53 -59
-194 -66 -269 -13 -141 99 -110 335 51 383 48 14 126 10 168 -9z m1740 0 c22
-10 46 -25 54 -35 12 -14 11 -20 -8 -40 l-23 -24 -35 24 c-70 47 -167 21 -205
-56 -66 -131 85 -267 205 -186 l35 24 23 -24 c21 -23 22 -25 4 -44 -53 -59
-194 -66 -269 -13 -141 99 -110 335 51 383 48 14 126 10 168 -9z m985 -56 c0
-34 1 -35 40 -35 38 0 40 -2 40 -30 0 -28 -2 -30 -40 -30 l-40 0 0 -81 c0
-102 10 -123 56 -115 30 6 34 4 40 -20 8 -33 -7 -44 -64 -44 -35 0 -49 6 -73
29 -28 29 -29 32 -29 130 l0 101 -30 0 c-27 0 -30 3 -30 30 0 27 3 30 30 30
28 0 30 3 30 35 0 33 2 35 35 35 33 0 35 -2 35 -35z m1150 0 c0 -34 1 -35 40
-35 38 0 40 -2 40 -30 0 -28 -2 -30 -40 -30 l-40 0 0 -83 c0 -100 12 -123 58
-114 28 6 33 3 38 -19 8 -33 -7 -44 -64 -44 -35 0 -49 6 -73 29 -28 29 -29 32
-29 130 l0 101 -30 0 c-27 0 -30 3 -30 30 0 27 3 30 30 30 28 0 30 3 30 35 0
33 2 35 35 35 33 0 35 -2 35 -35z m-3531 -55 c54 -27 81 -74 81 -140 0 -96
-67 -160 -166 -160 -125 0 -202 127 -144 239 37 73 148 103 229 61z m550 0
c54 -27 81 -74 81 -140 0 -66 -27 -113 -81 -140 -113 -58 -249 18 -249 140 0
122 136 198 249 140z m231 5 c0 -14 3 -14 30 0 16 8 40 15 55 15 22 0 25 -4
25 -35 0 -30 -3 -35 -24 -35 -66 0 -86 -37 -86 -155 l0 -85 -35 0 -35 0 0 155
0 155 35 0 c25 0 35 -4 35 -15z m969 -5 c54 -27 81 -74 81 -140 0 -127 -125
-198 -247 -139 -78 38 -106 140 -61 220 41 73 147 100 227 59z m221 5 c0 -18
1 -18 36 0 37 19 97 19 134 0 49 -25 60 -60 60 -185 l0 -110 -34 0 -34 0 -4
105 c-4 120 -13 137 -74 137 -29 0 -44 -6 -61 -27 -20 -23 -23 -37 -23 -121
l0 -94 -35 0 -35 0 0 155 0 155 35 0 c24 0 35 -5 35 -15z m650 0 c0 -14 3 -14
30 0 16 8 40 15 55 15 22 0 25 -4 25 -35 0 -30 -3 -35 -24 -35 -66 0 -86 -37
-86 -155 l0 -85 -35 0 -35 0 0 155 0 155 35 0 c25 0 35 -4 35 -15z m365 1 c53
-22 65 -58 65 -186 l0 -110 -35 0 c-19 0 -35 5 -35 10 0 6 -14 3 -32 -6 -47
-25 -125 -14 -155 20 -32 38 -31 95 3 127 22 20 38 24 105 28 43 1 79 7 79 13
0 19 -50 58 -75 58 -14 0 -42 -7 -62 -15 -33 -14 -37 -14 -49 2 -21 28 -17 40
24 56 47 20 123 21 167 3z m358 3 c42 -11 41 -9 25 -44 -9 -20 -17 -25 -32
-20 -55 17 -112 17 -130 0 -25 -25 -6 -41 66 -54 73 -13 105 -32 114 -68 16
-63 -34 -114 -121 -121 -53 -4 -140 12 -150 29 -6 9 15 59 25 59 4 0 25 -7 46
-16 24 -10 53 -14 78 -11 66 9 71 52 8 63 -117 19 -152 42 -152 97 1 38 16 61
56 82 34 17 112 20 167 4z"/>
<path d="M1135 2921 c-81 -34 -79 -151 4 -182 54 -21 121 30 121 91 0 37 -28
77 -61 89 -36 13 -37 13 -64 2z"/>
<path d="M1685 2921 c-81 -34 -79 -151 4 -182 54 -21 121 30 121 91 0 37 -28
77 -61 89 -36 13 -37 13 -64 2z"/>
<path d="M2885 2921 c-81 -34 -79 -151 4 -182 54 -21 121 30 121 91 0 37 -28
77 -61 89 -36 13 -37 13 -64 2z"/>
<path d="M4106 2797 c-24 -18 -17 -49 15 -64 47 -23 109 12 109 61 0 13 -12
16 -53 16 -29 0 -61 -6 -71 -13z"/>
<path d="M6720 3183 c-135 -22 -291 -83 -408 -160 -77 -51 -205 -174 -257
-248 -59 -83 -120 -208 -152 -312 -25 -82 -27 -101 -27 -273 0 -174 1 -190 27
-275 136 -442 511 -725 962 -725 258 0 491 93 681 272 190 181 297 415 311
684 6 111 -12 284 -27 267 -4 -4 -38 -90 -76 -190 l-68 -183 -196 0 -196 0
-34 88 c-18 48 -57 149 -86 225 -30 76 -54 152 -54 169 0 22 41 96 146 265
115 185 143 237 134 248 -15 18 -171 95 -193 95 -9 0 -17 -4 -17 -9 0 -4 -11
-20 -25 -35 -53 -57 -151 -22 -164 60 l-6 39 -125 1 c-69 1 -136 0 -150 -3z
m1010 -1238 l0 -65 -242 2 -243 3 -3 63 -3 62 246 0 245 0 0 -65z"/>
<path d="M7297 1972 c-10 -2 -17 -13 -17 -28 l0 -24 204 0 c210 0 219 2 209
40 -3 13 -33 15 -191 15 -103 0 -195 -1 -205 -3z"/>
<path d="M7035 3170 c-10 -16 6 -60 25 -70 29 -15 65 -12 83 8 26 29 21 38
-30 52 -27 6 -53 14 -60 16 -7 2 -15 -1 -18 -6z"/>
<path d="M7292 2760 c-123 -198 -142 -233 -136 -257 4 -15 42 -116 85 -223
l78 -195 169 -3 170 -2 78 196 c43 108 77 207 76 219 -6 71 -142 303 -226 385
l-46 44 0 -143 c0 -128 2 -146 20 -168 47 -60 7 -148 -68 -148 -57 0 -92 34
-92 89 0 26 7 47 20 61 19 20 20 33 18 199 l-3 176 -143 -230z"/>
<path d="M7477 2963 c-4 -3 -7 -83 -7 -177 0 -159 -1 -173 -20 -189 -40 -34
-13 -97 43 -97 27 0 57 32 57 60 0 9 -11 27 -25 40 -25 23 -25 25 -25 197 0
158 -4 186 -23 166z"/>
<path d="M1960 2368 c-6 -18 -47 -134 -90 -258 -43 -124 -82 -233 -85 -242 -6
-14 -2 -18 18 -18 23 0 28 12 87 183 34 100 77 224 96 275 l33 92 -23 0 c-18
0 -27 -8 -36 -32z"/>
<path d="M487 2344 c-15 -16 -7 -53 14 -59 30 -10 58 19 43 43 -12 18 -45 28
-57 16z"/>
<path d="M4187 2344 c-15 -16 -7 -53 14 -59 30 -10 58 19 43 43 -12 18 -45 28
-57 16z"/>
<path d="M1212 2168 c3 -172 14 -205 78 -243 48 -27 142 -27 190 0 60 35 74
78 78 248 l4 147 -30 0 -31 0 -3 -156 -3 -156 -33 -29 c-54 -48 -153 -35 -180
26 -8 16 -12 80 -12 170 l0 145 -31 0 -31 0 4 -152z"/>
<path d="M1670 2115 l0 -205 30 0 30 0 0 205 0 205 -30 0 -30 0 0 -205z"/>
<path d="M2052 2168 c3 -172 14 -205 78 -243 48 -27 142 -27 190 0 60 35 74
78 78 248 l4 147 -30 0 -31 0 -3 -156 -3 -156 -33 -29 c-54 -48 -153 -35 -180
26 -8 16 -12 80 -12 170 l0 145 -31 0 -31 0 4 -152z"/>
<path d="M2480 2314 c0 -4 29 -48 65 -97 36 -50 63 -97 61 -104 -3 -7 -35 -53
-71 -102 -36 -49 -65 -92 -65 -95 0 -3 13 -6 29 -6 20 0 34 8 47 28 10 15 37
53 60 85 l42 58 62 -85 c54 -76 65 -86 92 -86 l30 0 -17 27 c-10 14 -44 62
-76 106 l-58 79 63 87 c84 116 82 111 48 111 -24 0 -36 -11 -81 -75 -28 -41
-56 -75 -60 -75 -4 0 -32 34 -62 75 -44 63 -58 75 -81 75 -15 0 -28 -3 -28 -6z"/>
<path d="M3060 2115 l0 -207 123 4 c93 3 130 8 157 22 90 47 129 127 109 224
-12 61 -45 104 -103 135 -34 18 -62 22 -163 25 l-123 4 0 -207z m260 133 c108
-56 108 -210 0 -265 -35 -18 -61 -23 -122 -23 l-78 0 0 155 0 155 78 0 c61 0
87 -5 122 -22z"/>
<path d="M490 2065 l0 -155 25 0 25 0 0 155 0 155 -25 0 -25 0 0 -155z"/>
<path d="M650 2065 l0 -155 25 0 25 0 0 101 c0 98 1 101 29 130 38 38 91 40
126 4 23 -23 25 -31 25 -130 l0 -105 25 0 25 0 0 113 c0 93 -3 117 -19 143
-34 55 -125 68 -187 27 -23 -14 -24 -14 -24 6 0 16 -6 21 -25 21 l-25 0 0
-155z"/>
<path d="M3606 2210 c-59 -19 -96 -73 -96 -142 0 -63 27 -109 80 -135 54 -28
101 -29 158 -3 45 20 51 30 27 50 -11 9 -19 8 -37 -4 -26 -19 -90 -21 -121 -5
-12 6 -30 21 -39 33 -35 42 -26 46 108 46 l127 0 -6 40 c-6 47 -27 83 -60 105
-29 19 -103 27 -141 15z m115 -53 c15 -11 39 -49 39 -61 0 -3 -45 -6 -100 -6
-111 0 -120 7 -74 54 21 21 36 26 73 26 25 0 53 -6 62 -13z"/>
<path d="M3933 2209 c-40 -12 -63 -43 -63 -85 0 -41 34 -70 93 -79 87 -13 118
-40 85 -73 -15 -15 -95 -16 -138 -1 -26 9 -34 9 -41 -2 -14 -22 -11 -26 24
-40 47 -20 147 -18 180 4 31 20 44 59 31 96 -9 26 -19 31 -134 63 -47 14 -62
37 -40 63 14 17 101 20 130 5 15 -8 21 -6 30 9 14 28 15 27 -34 40 -52 13 -79
13 -123 0z"/>
<path d="M4190 2065 l0 -155 25 0 25 0 0 155 0 155 -25 0 -25 0 0 -155z"/>
<path d="M4425 2210 c-98 -30 -131 -166 -59 -241 47 -50 150 -62 201 -24 28
22 35 18 28 -17 -10 -51 -47 -78 -106 -78 -27 0 -66 7 -87 15 -34 15 -38 15
-50 -2 -36 -49 173 -83 235 -37 54 40 63 73 63 242 l0 152 -25 0 c-20 0 -25
-5 -25 -25 l0 -26 -29 22 c-33 24 -101 33 -146 19z m119 -51 c14 -7 32 -27 41
-46 44 -93 -59 -178 -155 -128 -90 47 -54 185 49 185 22 0 51 -5 65 -11z"/>
<path d="M4760 2065 l0 -155 25 0 25 0 0 101 c0 98 1 101 29 130 38 38 91 40
126 4 23 -23 25 -31 25 -130 l0 -105 25 0 25 0 0 113 c0 93 -3 117 -19 143
-34 55 -125 68 -187 27 -23 -14 -24 -14 -24 6 0 16 -6 21 -25 21 l-25 0 0
-155z"/>
<path d="M9860 900 l0 -640 -552 -2 -553 -3 -3 -127 -3 -128 626 0 625 0 0
770 0 770 -70 0 -70 0 0 -640z"/>
<path d="M5000 130 l0 -130 369 0 370 0 3 130 3 130 -372 0 -373 0 0 -130z"/>
</g>
</svg>
